<?xml version="1.0" encoding="UTF-8" standalone="no"?>
<!-- Created with Inkscape (http://www.inkscape.org/) -->

<svg
   xmlns:dc="http://purl.org/dc/elements/1.1/"
   xmlns:cc="http://creativecommons.org/ns#"
   xmlns:rdf="http://www.w3.org/1999/02/22-rdf-syntax-ns#"
   xmlns:svg="http://www.w3.org/2000/svg"
   xmlns="http://www.w3.org/2000/svg"
   xmlns:sodipodi="http://sodipodi.sourceforge.net/DTD/sodipodi-0.dtd"
   xmlns:inkscape="http://www.inkscape.org/namespaces/inkscape"
   version="1.1"
   id="svg2"
   xml:space="preserve"
   width="755.90546"
   height="755.90546"
   viewBox="0 0 755.90546 755.90546"
   sodipodi:docname="WARR_Exploration2.svg"
   inkscape:version="0.92.2 (5c3e80d, 2017-08-06)"><metadata
     id="metadata8"><rdf:RDF><cc:Work
         rdf:about=""><dc:format>image/svg+xml</dc:format><dc:type
           rdf:resource="http://purl.org/dc/dcmitype/StillImage" /><dc:title></dc:title></cc:Work></rdf:RDF></metadata><defs
     id="defs6"><clipPath
       clipPathUnits="userSpaceOnUse"
       id="clipPath20"><path
         d="M 0,0 H 566.9291 V 566.9291 H 0 Z"
         id="path18"
         inkscape:connector-curvature="0" /></clipPath><clipPath
       clipPathUnits="userSpaceOnUse"
       id="clipPath30"><path
         d="m 264.0732,284.7941 h 76.31731 v 76.31731 H 264.0732 Z"
         id="path28"
         inkscape:connector-curvature="0" /></clipPath><clipPath
       clipPathUnits="userSpaceOnUse"
       id="clipPath40"><path
         d="m 256.6525,278.4646 h 76.31731 v 76.31731 H 256.6525 Z"
         id="path38"
         inkscape:connector-curvature="0" /></clipPath><clipPath
       clipPathUnits="userSpaceOnUse"
       id="clipPath50"><path
         d="M 145.3751,219.4162 H 262.6524 V 336.6935 H 145.3751 Z"
         id="path48"
         inkscape:connector-curvature="0" /></clipPath><clipPath
       clipPathUnits="userSpaceOnUse"
       id="clipPath60"><path
         d="M 136.0691,212.8027 H 253.3464 V 330.08 H 136.0691 Z"
         id="path58"
         inkscape:connector-curvature="0" /></clipPath><clipPath
       clipPathUnits="userSpaceOnUse"
       id="clipPath70"><path
         d="m 163.4386,89.92925 h 240.0519 v 387.0706 H 163.4386 Z"
         id="path68"
         inkscape:connector-curvature="0" /></clipPath><clipPath
       clipPathUnits="userSpaceOnUse"
       id="clipPath82"><path
         d="M 129.7441,197.5442 H 471.2876 V 354.9521 H 129.7441 Z"
         id="path80"
         inkscape:connector-curvature="0" /></clipPath><clipPath
       clipPathUnits="userSpaceOnUse"
       id="clipPath94"><path
         d="m 374.6632,299.2927 -28.8968,47.7486 13.6885,8.284 28.8968,-47.7485 z"
         id="path92"
         inkscape:connector-curvature="0" /></clipPath><clipPath
       clipPathUnits="userSpaceOnUse"
       id="clipPath100"><path
         d="M 0,0 H 566.9291 V 566.9291 H 0 Z"
         id="path98"
         inkscape:connector-curvature="0" /></clipPath></defs><sodipodi:namedview
     pagecolor="#ffffff"
     bordercolor="#666666"
     borderopacity="1"
     objecttolerance="10"
     gridtolerance="10"
     guidetolerance="10"
     inkscape:pageopacity="0"
     inkscape:pageshadow="2"
     inkscape:window-width="1920"
     inkscape:window-height="1025"
     id="namedview4"
     showgrid="false"
     inkscape:zoom="0.31220836"
     inkscape:cx="377.95273"
     inkscape:cy="377.95273"
     inkscape:window-x="-8"
     inkscape:window-y="-8"
     inkscape:window-maximized="1"
     inkscape:current-layer="g10" /><g
     id="g10"
     inkscape:groupmode="layer"
     inkscape:label="WARR_Exploration2"
     transform="matrix(1.3333333,0,0,-1.3333333,0,755.90547)"><g
       id="g12" /><g
       id="g4626"><g
         id="g24"><g
           clip-path="url(#clipPath30)"
           id="g26"><path
             inkscape:connector-curvature="0"
             id="path32"
             style="fill:#6da8ce;fill-opacity:1;fill-rule:nonzero;stroke:none"
             d="m 328.507,349.2279 c 14.5114,-14.5113 14.5114,-38.0389 0,-52.5503 -14.5114,-14.5113 -38.0389,-14.5113 -52.5503,0 -14.5113,14.5114 -14.5113,38.039 0,52.5503 14.5114,14.5114 38.0389,14.5114 52.5503,0 z" /></g></g><g
         id="g34"><g
           clip-path="url(#clipPath40)"
           id="g36"><path
             inkscape:connector-curvature="0"
             id="path42"
             style="fill:#ffffff;fill-opacity:1;fill-rule:nonzero;stroke:none"
             d="m 321.0863,342.8984 c 14.5113,-14.5114 14.5113,-38.039 0,-52.5503 -14.5114,-14.5114 -38.039,-14.5114 -52.5503,0 -14.5114,14.5113 -14.5114,38.0389 0,52.5503 14.5113,14.5113 38.0389,14.5113 52.5503,0 z" /></g></g><g
         id="g44"><g
           clip-path="url(#clipPath50)"
           id="g46"><path
             inkscape:connector-curvature="0"
             id="path52"
             style="fill:#6da8ce;fill-opacity:1;fill-rule:nonzero;stroke:none"
             d="m 244.7705,318.8116 c 22.5093,-22.5093 22.5093,-59.0041 0,-81.5134 -22.5093,-22.5093 -59.0041,-22.5093 -81.5134,0 -22.5093,22.5093 -22.5093,59.0041 0,81.5134 22.5093,22.5093 59.0041,22.5093 81.5134,0 z" /></g></g><g
         id="g54"><g
           clip-path="url(#clipPath60)"
           id="g56"><path
             inkscape:connector-curvature="0"
             id="path62"
             style="fill:#ffffff;fill-opacity:1;fill-rule:nonzero;stroke:none"
             d="m 235.4644,312.1981 c 22.5093,-22.5093 22.5093,-59.0041 0,-81.5134 -22.5093,-22.5093 -59.0041,-22.5093 -81.5134,0 -22.5093,22.5093 -22.5093,59.0041 0,81.5134 22.5093,22.5093 59.0041,22.5093 81.5134,0 z" /></g></g><g
         id="g64"><g
           clip-path="url(#clipPath70)"
           id="g66"><g
             transform="matrix(1,0,0,-1,172.6767,462.681)"
             id="g72"><path
               inkscape:connector-curvature="0"
               id="path74"
               style="fill:none;stroke:#0170ac;stroke-width:14;stroke-linecap:butt;stroke-linejoin:miter;stroke-miterlimit:4;stroke-dasharray:none;stroke-opacity:1"
               d="M 111.2926,0 221.5927,179.5485 111.1227,358.4463 0,179.1507 Z" /></g></g></g><g
         id="g76"><g
           clip-path="url(#clipPath82)"
           id="g78"><g
             transform="matrix(-0.7071068,-0.7071068,-0.106066,0.106066,137.8102,346.9453)"
             id="g84"><path
               inkscape:connector-curvature="0"
               id="path86"
               style="fill:none;stroke:#9ec5dd;stroke-width:14;stroke-linecap:round;stroke-linejoin:round;stroke-miterlimit:4;stroke-dasharray:none;stroke-opacity:1"
               d="m 39.74016,-523.7539 c 7.28811,8.3931 14.68889,11.626 22.07897,9.6448 11.32902,-3.0372 23.21247,-25.1966 27.17999,-93.3225 2.82981,-48.5906 0.07546,-101.3626 -4.16918,-145.7257 -6.1005,-63.7598 -14.85699,-113.1191 -23.78903,-159.5811 -10.28146,-53.4811 -20.90339,-103.9626 -31.70416,-152.6796 -27.192983,-122.652 -55.50034,-234.035 -84.9225,-331.181 -30.67305,-101.276 -62.46175,-186.76 -95.06925,-256.155 -13.762,-29.288 -27.9213,-55.833 -42.3249,-46.536 -11.9223,7.695 -23.6263,45.418 -26.5062,120.244 -2.6863,69.795 3.9212,135.39 11.3233,189.506 10.8384,79.241 23.1843,147.144 35.8879,211.977 8.587,43.825 17.3554,86.358 26.5708,124.485 10.359,42.857 21.2218,79.9059 32.1701,115.6424 16.67735,54.4367 33.56996,105.892 50.65975,154.3107" /></g></g></g><g
         id="g88"><g
           clip-path="url(#clipPath94)"
           id="g90"><g
             clip-path="url(#clipPath100)"
             id="g96"><g
               transform="matrix(-0.5177552,0.8555288,0.8555288,0.5177552,380.9897,304.2903)"
               id="g102"><path
                 inkscape:connector-curvature="0"
                 id="path104"
                 style="fill:none;stroke:#0170ac;stroke-width:14;stroke-linecap:butt;stroke-linejoin:miter;stroke-miterlimit:4;stroke-dasharray:none;stroke-opacity:1"
                 d="M 0,0 H 53.81172" /></g></g></g></g></g></g></svg>